<svg xmlns="http://www.w3.org/2000/svg" version="1.1" width="500px" height="500px" style="shape-rendering:geometricPrecision; text-rendering:geometricPrecision; image-rendering:optimizeQuality; fill-rule:evenodd; clip-rule:evenodd" xmlns:xlink="http://www.w3.org/1999/xlink">
<g><path style="opacity:0.998" fill="#fdfefe" d="M 448.5,215.5 C 450.445,232.497 450.612,249.497 449,266.5C 448.667,262.833 448.333,259.167 448,255.5C 447.502,258.817 447.335,262.15 447.5,265.5C 442.5,265.5 437.5,265.5 432.5,265.5C 432.5,267.5 432.5,269.5 432.5,271.5C 434.833,271.5 437.167,271.5 439.5,271.5C 439.5,274.167 439.5,276.833 439.5,279.5C 442.598,279.413 442.932,279.913 440.5,281C 434.584,281.19 428.751,281.69 423,282.5C 422.167,281.667 421.333,280.833 420.5,280C 424.152,279.501 427.818,279.335 431.5,279.5C 432.825,272.83 430.158,270.164 423.5,271.5C 423.5,269.5 423.5,267.5 423.5,265.5C 415.632,263.781 407.632,263.114 399.5,263.5C 399.5,260.833 399.5,258.167 399.5,255.5C 394.167,255.5 388.833,255.5 383.5,255.5C 383.5,258.167 383.5,260.833 383.5,263.5C 378.167,263.5 372.833,263.5 367.5,263.5C 367.5,259.833 367.5,256.167 367.5,252.5C 351.486,252.167 335.486,252.501 319.5,253.5C 319.808,254.308 320.308,254.975 321,255.5C 325.333,255.167 329.667,254.833 334,254.5C 335.464,255.459 336.297,256.792 336.5,258.5C 335.654,262.118 335.32,265.785 335.5,269.5C 330.489,269.334 325.489,269.501 320.5,270C 320.578,272.953 320.245,275.953 319.5,279C 320.167,279.333 320.833,279.667 321.5,280C 320.944,282.237 319.944,284.237 318.5,286C 319.731,287.183 319.731,288.349 318.5,289.5C 317.735,288.388 316.735,287.721 315.5,287.5C 316.427,285.717 317.26,284.051 318,282.5C 316.212,279.404 313.712,278.737 310.5,280.5C 308.614,277.545 307.614,274.211 307.5,270.5C 308.873,270.657 310.207,270.49 311.5,270C 309.893,268.951 309.227,267.451 309.5,265.5C 306.979,265.56 304.646,264.894 302.5,263.5C 301.833,263.667 301.167,263.833 300.5,264C 301.381,265.793 300.714,266.46 298.5,266C 295.208,263.01 291.874,260.01 288.5,257C 284.892,256.123 281.559,254.623 278.5,252.5C 277.05,251.15 276.383,249.484 276.5,247.5C 277.833,246.167 279.167,244.833 280.5,243.5C 293.791,234.542 305.125,223.542 314.5,210.5C 315.167,210.5 315.5,210.167 315.5,209.5C 319.575,204.363 322.908,198.696 325.5,192.5C 326.784,189.598 327.784,186.598 328.5,183.5C 329.167,182.833 329.833,182.167 330.5,181.5C 333.028,177.946 334.861,173.946 336,169.5C 337.751,155.031 338.918,140.531 339.5,126C 338.724,122.778 337.391,119.944 335.5,117.5C 335.011,116.005 334.345,114.671 333.5,113.5C 332.833,112.167 331.833,111.167 330.5,110.5C 327.672,107.058 324.005,105.891 319.5,107C 316.333,108.833 313.833,111.333 312,114.5C 311.696,128.181 311.196,141.848 310.5,155.5C 308.525,162.043 306.525,168.71 304.5,175.5C 303.833,176.167 303.167,176.833 302.5,177.5C 300.443,180.605 298.61,183.939 297,187.5C 296.751,186.376 296.251,185.376 295.5,184.5C 292.853,187.18 291.52,186.513 291.5,182.5C 291.5,182.167 291.5,181.833 291.5,181.5C 293.153,177.283 291.819,174.116 287.5,172C 262.167,171.333 236.833,171.333 211.5,172C 209.937,172.759 208.937,173.926 208.5,175.5C 208.167,175.5 207.833,175.5 207.5,175.5C 204.774,177.419 202.941,180.086 202,183.5C 201.329,184.252 200.496,184.586 199.5,184.5C 196.37,178.11 194.037,171.444 192.5,164.5C 192.42,159.684 191.586,155.017 190,150.5C 189.833,145.5 189.667,140.5 189.5,135.5C 189.937,128.434 190.437,121.434 191,114.5C 190.333,113.167 189.667,113.167 189,114.5C 187.719,111.553 185.719,109.219 183,107.5C 182.517,106.552 182.351,105.552 182.5,104.5C 177.864,105.149 173.198,105.649 168.5,106C 165.38,108.408 164.047,111.574 164.5,115.5C 162.001,130.32 162.001,144.987 164.5,159.5C 164.431,164.616 165.098,169.616 166.5,174.5C 167.668,180.826 169.168,187.159 171,193.5C 174.406,195.979 175.906,199.312 175.5,203.5C 177.322,203.831 178.989,204.498 180.5,205.5C 186.755,214.092 193.755,222.092 201.5,229.5C 202.167,230.5 202.833,231.5 203.5,232.5C 203.351,233.552 203.517,234.552 204,235.5C 207.72,236.725 210.22,239.059 211.5,242.5C 214.652,242.047 217.152,243.047 219,245.5C 220.667,244.5 222,243.167 223,241.5C 224.039,242.244 224.539,243.244 224.5,244.5C 222.577,244.795 220.91,245.628 219.5,247C 219.5,248.333 219.5,249.667 219.5,251C 217.873,250.57 216.373,250.404 215,250.5C 215.409,252.225 215.242,253.892 214.5,255.5C 212.736,253.521 210.736,253.188 208.5,254.5C 209.376,255.251 210.376,255.751 211.5,256C 209.254,259.915 206.088,262.748 202,264.5C 201.51,265.793 201.343,267.127 201.5,268.5C 201.167,268.5 200.833,268.5 200.5,268.5C 198.623,268.1 197.123,267.1 196,265.5C 193.53,266.288 191.697,265.288 190.5,262.5C 191.325,261.614 192.325,261.281 193.5,261.5C 193.467,264.742 194.8,265.075 197.5,262.5C 197.977,261.522 198.643,260.689 199.5,260C 199.167,259.667 198.833,259.333 198.5,259C 199.759,258.077 201.092,257.243 202.5,256.5C 202.113,255.28 201.28,254.613 200,254.5C 198.189,255.078 196.355,255.578 194.5,256C 198.017,257.109 198.184,258.276 195,259.5C 193.5,258.5 192,257.5 190.5,256.5C 166.955,252.65 143.288,251.65 119.5,253.5C 114.167,252.833 108.833,252.167 103.5,251.5C 86.4363,252.241 70.103,253.574 54.5,255.5C 54.8134,258.247 54.48,260.914 53.5,263.5C 52.0295,264.381 51.1962,265.714 51,267.5C 49.4506,259.076 48.284,250.742 47.5,242.5C 52.7853,169.393 86.1186,113.226 147.5,74C 215.851,36.1405 284.185,36.1405 352.5,74C 404.852,107.214 436.852,154.381 448.5,215.5 Z"/></g>
<g><path style="opacity:1" fill="#e5fefe" d="M 205.5,114.5 C 235.664,113.336 265.997,113.169 296.5,114C 297.252,114.671 297.586,115.504 297.5,116.5C 296.234,115.91 294.901,115.41 293.5,115C 264.169,114.5 234.835,114.333 205.5,114.5 Z"/></g>
<g><path style="opacity:1" fill="#80b6d5" d="M 205.5,115.5 C 205.5,115.167 205.5,114.833 205.5,114.5C 234.835,114.333 264.169,114.5 293.5,115C 294.901,115.41 296.234,115.91 297.5,116.5C 298.851,118.392 299.518,120.558 299.5,123C 299.693,125.008 299.026,126.508 297.5,127.5C 298.39,125.218 298.556,122.885 298,120.5C 295.881,119.349 294.047,117.849 292.5,116C 263.502,115.5 234.502,115.333 205.5,115.5 Z"/></g>
<g><path style="opacity:1" fill="#5eb5e9" d="M 205.5,115.5 C 234.502,115.333 263.502,115.5 292.5,116C 294.047,117.849 295.881,119.349 298,120.5C 298.556,122.885 298.39,125.218 297.5,127.5C 296.486,128.674 295.153,129.34 293.5,129.5C 264.165,129.667 234.831,129.5 205.5,129C 204.756,127.961 203.756,127.461 202.5,127.5C 201.883,127.389 201.383,127.056 201,126.5C 200.333,123.833 200.333,121.167 201,118.5C 202.129,116.859 203.629,115.859 205.5,115.5 Z"/></g>
<g><path style="opacity:1" fill="#ecfdfe" d="M 192.5,164.5 C 191.349,162.221 190.349,159.888 189.5,157.5C 188.737,143.525 188.237,129.525 188,115.5C 180.118,103.567 172.285,103.567 164.5,115.5C 164.047,111.574 165.38,108.408 168.5,106C 173.198,105.649 177.864,105.149 182.5,104.5C 182.351,105.552 182.517,106.552 183,107.5C 185.719,109.219 187.719,111.553 189,114.5C 189.667,113.167 190.333,113.167 191,114.5C 190.437,121.434 189.937,128.434 189.5,135.5C 189.667,140.5 189.833,145.5 190,150.5C 191.586,155.017 192.42,159.684 192.5,164.5 Z"/></g>
<g><path style="opacity:1" fill="#5fb9ea" d="M 330.5,110.5 C 331.833,111.167 332.833,112.167 333.5,113.5C 335.506,127.613 335.839,141.613 334.5,155.5C 334.824,151.445 334.491,147.445 333.5,143.5C 332.024,141.429 330.024,140.429 327.5,140.5C 327.5,142.167 327.5,143.833 327.5,145.5C 326.5,145.5 325.5,145.5 324.5,145.5C 324.5,146.5 324.5,147.5 324.5,148.5C 322.5,148.5 320.5,148.5 318.5,148.5C 318.377,156.419 315.377,162.919 309.5,168C 310.5,168.333 311.5,168.667 312.5,169C 311.773,170.399 311.273,171.899 311,173.5C 310.667,172.833 310.333,172.167 310,171.5C 308.358,173.102 306.525,174.435 304.5,175.5C 306.525,168.71 308.525,162.043 310.5,155.5C 311.117,155.389 311.617,155.056 312,154.5C 312.5,141.838 312.667,129.171 312.5,116.5C 313.5,116.5 314.5,116.5 315.5,116.5C 314.725,112.818 316.059,110.318 319.5,109C 323.31,108.413 326.977,108.913 330.5,110.5 Z"/></g>
<g><path style="opacity:1" fill="#86b8d6" d="M 202.5,127.5 C 203.756,127.461 204.756,127.961 205.5,129C 234.831,129.5 264.165,129.667 293.5,129.5C 264.005,130.498 234.338,130.831 204.5,130.5C 203.833,129.5 203.167,128.5 202.5,127.5 Z"/></g>
<g><path style="opacity:1" fill="#e9fefe" d="M 297.5,116.5 C 298.496,116.414 299.329,116.748 300,117.5C 300.827,121.541 300.66,125.541 299.5,129.5C 296.725,133.077 293.391,133.911 289.5,132C 260.997,131.832 232.664,131.332 204.5,130.5C 234.338,130.831 264.005,130.498 293.5,129.5C 295.153,129.34 296.486,128.674 297.5,127.5C 299.026,126.508 299.693,125.008 299.5,123C 299.518,120.558 298.851,118.392 297.5,116.5 Z"/></g>
<g><path style="opacity:1" fill="#55b3e9" d="M 334.5,155.5 C 331.937,164.657 329.937,173.99 328.5,183.5C 327.784,186.598 326.784,189.598 325.5,192.5C 324.265,192.721 323.265,193.388 322.5,194.5C 319.633,199.29 317.3,204.29 315.5,209.5C 315.5,210.167 315.167,210.5 314.5,210.5C 314.416,206.669 315.083,203.002 316.5,199.5C 314.345,199.628 312.345,199.128 310.5,198C 309.495,194.634 306.828,193.134 302.5,193.5C 302.405,191.214 301.738,189.214 300.5,187.5C 300.833,186.167 301.167,184.833 301.5,183.5C 301.833,181.5 302.167,179.5 302.5,177.5C 303.167,176.833 303.833,176.167 304.5,175.5C 306.525,174.435 308.358,173.102 310,171.5C 310.333,172.167 310.667,172.833 311,173.5C 311.273,171.899 311.773,170.399 312.5,169C 311.5,168.667 310.5,168.333 309.5,168C 315.377,162.919 318.377,156.419 318.5,148.5C 320.5,148.5 322.5,148.5 324.5,148.5C 324.5,147.5 324.5,146.5 324.5,145.5C 325.5,145.5 326.5,145.5 327.5,145.5C 327.5,143.833 327.5,142.167 327.5,140.5C 330.024,140.429 332.024,141.429 333.5,143.5C 334.491,147.445 334.824,151.445 334.5,155.5 Z"/></g>
<g><path style="opacity:1" fill="#98c9e4" d="M 280.5,143.5 C 284.646,142.353 288.98,142.186 293.5,143C 295.584,143.697 297.251,144.864 298.5,146.5C 292.871,143.857 286.871,142.857 280.5,143.5 Z"/></g>
<g><path style="opacity:1" fill="#5cb7ea" d="M 189.5,157.5 C 190.349,159.888 191.349,162.221 192.5,164.5C 194.037,171.444 196.37,178.11 199.5,184.5C 199.5,184.833 199.5,185.167 199.5,185.5C 197.718,184.28 195.718,183.614 193.5,183.5C 193.318,188.794 192.818,188.794 192,183.5C 189.328,188.258 185.161,190.592 179.5,190.5C 179.218,192.987 179.218,195.653 179.5,198.5C 177.588,196.343 175.921,194.009 174.5,191.5C 171.088,186.19 168.421,180.523 166.5,174.5C 165.098,169.616 164.431,164.616 164.5,159.5C 164.333,147.829 164.5,136.162 165,124.5C 165.327,120.358 166.161,116.358 167.5,112.5C 170.114,112.723 171.781,111.556 172.5,109C 175.167,108.333 177.833,108.333 180.5,109C 181.227,110.399 181.727,111.899 182,113.5C 183.011,112.663 184.178,112.33 185.5,112.5C 186.28,126.135 186.78,139.802 187,153.5C 187.934,154.858 188.768,156.192 189.5,157.5 Z"/></g>
<g><path style="opacity:1" fill="#7cbcdf" d="M 189.5,157.5 C 188.768,156.192 187.934,154.858 187,153.5C 186.78,139.802 186.28,126.135 185.5,112.5C 184.178,112.33 183.011,112.663 182,113.5C 181.727,111.899 181.227,110.399 180.5,109C 177.833,108.333 175.167,108.333 172.5,109C 171.781,111.556 170.114,112.723 167.5,112.5C 166.161,116.358 165.327,120.358 165,124.5C 164.5,136.162 164.333,147.829 164.5,159.5C 162.001,144.987 162.001,130.32 164.5,115.5C 172.285,103.567 180.118,103.567 188,115.5C 188.237,129.525 188.737,143.525 189.5,157.5 Z"/></g>
<g><path style="opacity:1" fill="#61b2e1" d="M 280.5,143.5 C 286.871,142.857 292.871,143.857 298.5,146.5C 300.483,151.126 299.483,154.96 295.5,158C 290.167,158.667 284.833,158.667 279.5,158C 276.317,156.982 274.984,154.815 275.5,151.5C 275.167,147.484 276.834,144.818 280.5,143.5 Z"/></g>
<g><path style="opacity:1" fill="#58b3ec" d="M 283.5,144.5 C 284.5,144.5 285.5,144.5 286.5,144.5C 286.5,146.167 286.5,147.833 286.5,149.5C 287.5,149.5 288.5,149.5 289.5,149.5C 289.215,147.712 289.548,146.045 290.5,144.5C 292.277,145.901 293.944,147.401 295.5,149C 293.75,150.754 293.083,152.921 293.5,155.5C 288.499,155.036 283.499,154.703 278.5,154.5C 279.833,152.5 279.833,150.5 278.5,148.5C 280.363,147.311 282.03,145.978 283.5,144.5 Z"/></g>
<g><path style="opacity:1" fill="#7abbdd" d="M 330.5,110.5 C 326.977,108.913 323.31,108.413 319.5,109C 316.059,110.318 314.725,112.818 315.5,116.5C 314.5,116.5 313.5,116.5 312.5,116.5C 312.667,129.171 312.5,141.838 312,154.5C 311.617,155.056 311.117,155.389 310.5,155.5C 311.196,141.848 311.696,128.181 312,114.5C 313.833,111.333 316.333,108.833 319.5,107C 324.005,105.891 327.672,107.058 330.5,110.5 Z"/></g>
<g><path style="opacity:1" fill="#62b2de" d="M 203.5,145.5 C 203.611,144.883 203.944,144.383 204.5,144C 221.5,143.333 238.5,143.333 255.5,144C 256.931,144.465 258.097,145.299 259,146.5C 259.667,149.5 259.667,152.5 259,155.5C 258.097,156.701 256.931,157.535 255.5,158C 238.5,158.667 221.5,158.667 204.5,158C 200.521,155.037 199.521,151.204 201.5,146.5C 201.957,145.702 202.624,145.369 203.5,145.5 Z"/></g>
<g><path style="opacity:1" fill="#59b5ea" d="M 203.5,145.5 C 216.801,144.203 230.134,144.203 243.5,145.5C 244.59,147.003 245.757,147.336 247,146.5C 247.617,147.449 247.451,148.282 246.5,149C 250.486,149.499 254.486,149.666 258.5,149.5C 258.5,151.167 258.5,152.833 258.5,154.5C 257.178,154.67 256.011,154.337 255,153.5C 254.51,154.793 254.343,156.127 254.5,157.5C 238.83,157.667 223.163,157.5 207.5,157C 208.167,156.333 208.833,155.667 209.5,155C 219.694,154.352 219.361,153.185 208.5,151.5C 206.337,151.922 205.003,153.256 204.5,155.5C 205.027,152.876 204.36,150.376 202.5,148C 202.743,147.098 203.077,146.265 203.5,145.5 Z"/></g>
<g><path style="opacity:1" fill="#79bcdf" d="M 333.5,113.5 C 334.345,114.671 335.011,116.005 335.5,117.5C 339.268,139.289 337.601,160.622 330.5,181.5C 329.833,182.167 329.167,182.833 328.5,183.5C 329.937,173.99 331.937,164.657 334.5,155.5C 335.839,141.613 335.506,127.613 333.5,113.5 Z"/></g>
<g><path style="opacity:1" fill="#ebfdfe" d="M 335.5,117.5 C 337.391,119.944 338.724,122.778 339.5,126C 338.918,140.531 337.751,155.031 336,169.5C 334.861,173.946 333.028,177.946 330.5,181.5C 337.601,160.622 339.268,139.289 335.5,117.5 Z"/></g>
<g><path style="opacity:1" fill="#73b8dd" d="M 291.5,181.5 C 291.933,178.019 290.599,175.686 287.5,174.5C 262.337,173.337 237.003,173.17 211.5,174C 210.756,175.039 209.756,175.539 208.5,175.5C 208.937,173.926 209.937,172.759 211.5,172C 236.833,171.333 262.167,171.333 287.5,172C 291.819,174.116 293.153,177.283 291.5,181.5 Z"/></g>
<g><path style="opacity:1" fill="#50aeea" d="M 287.5,174.5 C 290.599,175.686 291.933,178.019 291.5,181.5C 273.83,181.667 256.164,181.5 238.5,181C 239,180.5 239.5,180 240,179.5C 242.476,179.453 244.809,179.786 247,180.5C 247.333,179.833 247.667,179.167 248,178.5C 249.467,178.419 251.134,178.753 253,179.5C 254.326,179.245 255.326,178.578 256,177.5C 256.333,178.167 256.667,178.833 257,179.5C 258.333,179.5 259.667,179.5 261,179.5C 264.168,177.795 267.668,176.962 271.5,177C 270.584,176.626 269.75,176.126 269,175.5C 265.816,176.256 262.483,176.589 259,176.5C 257.775,176.138 256.609,175.638 255.5,175C 266.161,174.5 276.828,174.333 287.5,174.5 Z"/></g>
<g><path style="opacity:1" fill="#54aee2" d="M 287.5,174.5 C 276.828,174.333 266.161,174.5 255.5,175C 256.609,175.638 257.775,176.138 259,176.5C 262.483,176.589 265.816,176.256 269,175.5C 269.75,176.126 270.584,176.626 271.5,177C 267.668,176.962 264.168,177.795 261,179.5C 259.667,179.5 258.333,179.5 257,179.5C 256.667,178.833 256.333,178.167 256,177.5C 255.326,178.578 254.326,179.245 253,179.5C 251.134,178.753 249.467,178.419 248,178.5C 247.667,179.167 247.333,179.833 247,180.5C 244.809,179.786 242.476,179.453 240,179.5C 239.5,180 239,180.5 238.5,181C 256.164,181.5 273.83,181.667 291.5,181.5C 291.5,181.833 291.5,182.167 291.5,182.5C 290.038,183.458 288.705,184.624 287.5,186C 262.5,186.667 237.5,186.667 212.5,186C 208.019,183.939 206.352,180.439 207.5,175.5C 207.833,175.5 208.167,175.5 208.5,175.5C 209.756,175.539 210.756,175.039 211.5,174C 237.003,173.17 262.337,173.337 287.5,174.5 Z"/></g>
<g><path style="opacity:1" fill="#f7fdfd" d="M 207.5,175.5 C 206.352,180.439 208.019,183.939 212.5,186C 237.5,186.667 262.5,186.667 287.5,186C 288.705,184.624 290.038,183.458 291.5,182.5C 291.52,186.513 292.853,187.18 295.5,184.5C 296.251,185.376 296.751,186.376 297,187.5C 298.61,183.939 300.443,180.605 302.5,177.5C 302.167,179.5 301.833,181.5 301.5,183.5C 295.668,193.01 288.668,201.677 280.5,209.5C 268.666,219.574 256.333,228.907 243.5,237.5C 239.673,239.246 236.007,241.246 232.5,243.5C 229.951,243.387 227.618,244.054 225.5,245.5C 224.893,245.376 224.56,245.043 224.5,244.5C 224.539,243.244 224.039,242.244 223,241.5C 222,243.167 220.667,244.5 219,245.5C 217.152,243.047 214.652,242.047 211.5,242.5C 210.22,239.059 207.72,236.725 204,235.5C 203.517,234.552 203.351,233.552 203.5,232.5C 204.833,233.167 206.167,233.833 207.5,234.5C 209.802,237.412 212.636,239.745 216,241.5C 218.844,239.841 221.344,237.841 223.5,235.5C 228.45,233.02 233.116,230.02 237.5,226.5C 233.625,222.461 229.292,218.961 224.5,216C 220.036,211.521 215.702,207.021 211.5,202.5C 207.251,197 203.251,191.334 199.5,185.5C 199.5,185.167 199.5,184.833 199.5,184.5C 200.496,184.586 201.329,184.252 202,183.5C 202.941,180.086 204.774,177.419 207.5,175.5 Z"/></g>
<g><path style="opacity:1" fill="#65b0d7" d="M 199.5,185.5 C 203.251,191.334 207.251,197 211.5,202.5C 208.135,199.299 204.635,196.299 201,193.5C 200.178,190.883 199.678,188.216 199.5,185.5 Z"/></g>
<g><path style="opacity:1" fill="#eafcfe" d="M 166.5,174.5 C 168.421,180.523 171.088,186.19 174.5,191.5C 175.127,195.42 176.793,198.753 179.5,201.5C 179.833,202.833 180.167,204.167 180.5,205.5C 178.989,204.498 177.322,203.831 175.5,203.5C 175.906,199.312 174.406,195.979 171,193.5C 169.168,187.159 167.668,180.826 166.5,174.5 Z"/></g>
<g><path style="opacity:1" fill="#73b2d2" d="M 174.5,191.5 C 175.921,194.009 177.588,196.343 179.5,198.5C 179.5,199.5 179.5,200.5 179.5,201.5C 176.793,198.753 175.127,195.42 174.5,191.5 Z"/></g>
<g><path style="opacity:1" fill="#4dade6" d="M 199.5,185.5 C 199.678,188.216 200.178,190.883 201,193.5C 204.635,196.299 208.135,199.299 211.5,202.5C 215.702,207.021 220.036,211.521 224.5,216C 229.292,218.961 233.625,222.461 237.5,226.5C 233.116,230.02 228.45,233.02 223.5,235.5C 220.502,235.249 218.002,236.249 216,238.5C 213.888,235.694 211.054,234.361 207.5,234.5C 206.167,233.833 204.833,233.167 203.5,232.5C 202.833,231.5 202.167,230.5 201.5,229.5C 198.318,222.815 193.818,217.148 188,212.5C 187.46,210.865 187.96,209.532 189.5,208.5C 189,207.5 188.5,206.5 188,205.5C 187.333,206.833 186.333,207.833 185,208.5C 183.868,206.661 183.035,204.661 182.5,202.5C 181.675,201.614 180.675,201.281 179.5,201.5C 179.5,200.5 179.5,199.5 179.5,198.5C 179.218,195.653 179.218,192.987 179.5,190.5C 185.161,190.592 189.328,188.258 192,183.5C 192.818,188.794 193.318,188.794 193.5,183.5C 195.718,183.614 197.718,184.28 199.5,185.5 Z"/></g>
<g><path style="opacity:1" fill="#5cadda" d="M 301.5,183.5 C 301.167,184.833 300.833,186.167 300.5,187.5C 298.643,191.867 296.143,195.867 293,199.5C 292.51,200.793 292.343,202.127 292.5,203.5C 290.801,203.34 289.134,203.506 287.5,204C 285.559,206.454 283.225,208.287 280.5,209.5C 288.668,201.677 295.668,193.01 301.5,183.5 Z"/></g>
<g><path style="opacity:1" fill="#6aafd6" d="M 325.5,192.5 C 322.908,198.696 319.575,204.363 315.5,209.5C 317.3,204.29 319.633,199.29 322.5,194.5C 323.265,193.388 324.265,192.721 325.5,192.5 Z"/></g>
<g><path style="opacity:1" fill="#57ade0" d="M 259.5,211.5 C 259.047,212.458 258.381,213.292 257.5,214C 251.833,214.667 246.167,214.667 240.5,214C 235.973,210.301 231.639,206.468 227.5,202.5C 233.966,201.17 240.799,200.503 248,200.5C 254.833,200.667 261.667,200.833 268.5,201C 268.833,201.333 269.167,201.667 269.5,202C 267.018,204.963 263.852,206.797 260,207.5C 259.51,208.793 259.343,210.127 259.5,211.5 Z"/></g>
<g><path style="opacity:1" fill="#70b0d6" d="M 259.5,211.5 C 259.343,210.127 259.51,208.793 260,207.5C 263.852,206.797 267.018,204.963 269.5,202C 269.167,201.667 268.833,201.333 268.5,201C 261.667,200.833 254.833,200.667 248,200.5C 240.799,200.503 233.966,201.17 227.5,202.5C 226.373,201.878 225.373,201.045 224.5,200C 240.833,199.333 257.167,199.333 273.5,200C 269.541,204.802 264.874,208.635 259.5,211.5 Z"/></g>
<g><path style="opacity:1" fill="#61acd7" d="M 179.5,201.5 C 180.675,201.281 181.675,201.614 182.5,202.5C 183.035,204.661 183.868,206.661 185,208.5C 186.333,207.833 187.333,206.833 188,205.5C 188.5,206.5 189,207.5 189.5,208.5C 187.96,209.532 187.46,210.865 188,212.5C 193.818,217.148 198.318,222.815 201.5,229.5C 193.755,222.092 186.755,214.092 180.5,205.5C 180.167,204.167 179.833,202.833 179.5,201.5 Z"/></g>
<g><path style="opacity:1" fill="#49aae4" d="M 300.5,187.5 C 301.738,189.214 302.405,191.214 302.5,193.5C 306.828,193.134 309.495,194.634 310.5,198C 312.345,199.128 314.345,199.628 316.5,199.5C 315.083,203.002 314.416,206.669 314.5,210.5C 305.125,223.542 293.791,234.542 280.5,243.5C 278.94,243.519 277.44,243.852 276,244.5C 274.943,243.373 273.777,242.873 272.5,243C 273.138,244.707 273.138,246.54 272.5,248.5C 270.712,248.785 269.045,248.452 267.5,247.5C 265.59,244.584 262.923,242.918 259.5,242.5C 259.5,243.5 259.5,244.5 259.5,245.5C 263.193,245.186 265.527,246.852 266.5,250.5C 264.833,251.167 263.167,251.833 261.5,252.5C 262.641,253.425 262.641,254.259 261.5,255C 256.215,257.647 251.215,260.813 246.5,264.5C 242.6,265.744 241.933,264.91 244.5,262C 245.448,261.517 246.448,261.351 247.5,261.5C 247.33,260.178 247.663,259.011 248.5,258C 245.333,258.276 242.666,259.776 240.5,262.5C 238.976,260.517 237.976,258.184 237.5,255.5C 236.264,256.246 234.93,256.579 233.5,256.5C 233.5,255.5 233.5,254.5 233.5,253.5C 234.833,253.5 236.167,253.5 237.5,253.5C 237.343,252.127 237.51,250.793 238,249.5C 239.236,248.601 240.07,247.434 240.5,246C 239.711,245.454 238.711,244.787 237.5,244C 239.027,241.31 241.027,239.143 243.5,237.5C 256.333,228.907 268.666,219.574 280.5,209.5C 283.225,208.287 285.559,206.454 287.5,204C 289.134,203.506 290.801,203.34 292.5,203.5C 292.343,202.127 292.51,200.793 293,199.5C 296.143,195.867 298.643,191.867 300.5,187.5 Z"/></g>
<g><path style="opacity:0.998" fill="#f7fdfe" d="M 448.5,215.5 C 454.554,249.516 451.888,282.849 440.5,315.5C 437.012,316.143 434.512,318.143 433,321.5C 427.702,321.566 422.202,321.4 416.5,321C 415.421,320.044 414.255,319.211 413,318.5C 387.815,319.679 361.149,319.679 333,318.5C 332.667,316.5 332.333,314.5 332,312.5C 329.085,308.914 326.752,304.914 325,300.5C 324.329,299.748 323.496,299.414 322.5,299.5C 320.167,295.5 317.833,291.5 315.5,287.5C 316.735,287.721 317.735,288.388 318.5,289.5C 319.731,288.349 319.731,287.183 318.5,286C 319.944,284.237 320.944,282.237 321.5,280C 320.833,279.667 320.167,279.333 319.5,279C 320.245,275.953 320.578,272.953 320.5,270C 325.489,269.501 330.489,269.334 335.5,269.5C 335.32,265.785 335.654,262.118 336.5,258.5C 336.297,256.792 335.464,255.459 334,254.5C 329.667,254.833 325.333,255.167 321,255.5C 320.308,254.975 319.808,254.308 319.5,253.5C 335.486,252.501 351.486,252.167 367.5,252.5C 367.5,256.167 367.5,259.833 367.5,263.5C 372.833,263.5 378.167,263.5 383.5,263.5C 383.5,260.833 383.5,258.167 383.5,255.5C 388.833,255.5 394.167,255.5 399.5,255.5C 399.5,258.167 399.5,260.833 399.5,263.5C 407.632,263.114 415.632,263.781 423.5,265.5C 423.5,267.5 423.5,269.5 423.5,271.5C 430.158,270.164 432.825,272.83 431.5,279.5C 427.818,279.335 424.152,279.501 420.5,280C 421.333,280.833 422.167,281.667 423,282.5C 428.751,281.69 434.584,281.19 440.5,281C 442.932,279.913 442.598,279.413 439.5,279.5C 439.5,276.833 439.5,274.167 439.5,271.5C 437.167,271.5 434.833,271.5 432.5,271.5C 432.5,269.5 432.5,267.5 432.5,265.5C 437.5,265.5 442.5,265.5 447.5,265.5C 447.335,262.15 447.502,258.817 448,255.5C 448.333,259.167 448.667,262.833 449,266.5C 450.612,249.497 450.445,232.497 448.5,215.5 Z"/></g>
<g><path style="opacity:1" fill="#62abd4" d="M 207.5,234.5 C 211.054,234.361 213.888,235.694 216,238.5C 218.002,236.249 220.502,235.249 223.5,235.5C 221.344,237.841 218.844,239.841 216,241.5C 212.636,239.745 209.802,237.412 207.5,234.5 Z"/></g>
<g><path style="opacity:1" fill="#ebfbfe" d="M 232.5,243.5 C 221.916,251.08 211.916,259.413 202.5,268.5C 202.167,268.5 201.833,268.5 201.5,268.5C 201.343,267.127 201.51,265.793 202,264.5C 206.088,262.748 209.254,259.915 211.5,256C 210.376,255.751 209.376,255.251 208.5,254.5C 210.736,253.188 212.736,253.521 214.5,255.5C 215.242,253.892 215.409,252.225 215,250.5C 216.373,250.404 217.873,250.57 219.5,251C 219.5,249.667 219.5,248.333 219.5,247C 220.91,245.628 222.577,244.795 224.5,244.5C 224.56,245.043 224.893,245.376 225.5,245.5C 227.618,244.054 229.951,243.387 232.5,243.5 Z"/></g>
<g><path style="opacity:0.999" fill="#f7fdfe" d="M 47.5,242.5 C 48.284,250.742 49.4506,259.076 51,267.5C 51.1962,265.714 52.0295,264.381 53.5,263.5C 54.48,260.914 54.8134,258.247 54.5,255.5C 70.103,253.574 86.4363,252.241 103.5,251.5C 108.833,252.167 114.167,252.833 119.5,253.5C 143.288,251.65 166.955,252.65 190.5,256.5C 192,257.5 193.5,258.5 195,259.5C 198.184,258.276 198.017,257.109 194.5,256C 196.355,255.578 198.189,255.078 200,254.5C 201.28,254.613 202.113,255.28 202.5,256.5C 201.092,257.243 199.759,258.077 198.5,259C 198.833,259.333 199.167,259.667 199.5,260C 198.643,260.689 197.977,261.522 197.5,262.5C 194.8,265.075 193.467,264.742 193.5,261.5C 192.325,261.281 191.325,261.614 190.5,262.5C 191.697,265.288 193.53,266.288 196,265.5C 197.123,267.1 198.623,268.1 200.5,268.5C 200.167,269.167 199.833,269.833 199.5,270.5C 192.104,278.232 185.437,286.565 179.5,295.5C 179.5,295.833 179.5,296.167 179.5,296.5C 177.133,299.904 175.133,303.571 173.5,307.5C 172.504,307.414 171.671,307.748 171,308.5C 169.01,316.289 167.843,316.289 167.5,308.5C 165.408,308.439 163.908,307.439 163,305.5C 162,306.5 161,307.5 160,308.5C 159.58,312.191 159.08,315.858 158.5,319.5C 148.173,320.249 137.84,320.916 127.5,321.5C 127.785,319.712 127.452,318.045 126.5,316.5C 125.614,317.325 125.281,318.325 125.5,319.5C 120.139,319.995 114.972,319.329 110,317.5C 108.278,317.611 108.112,318.111 109.5,319C 105.333,319.167 101.167,319.333 97,319.5C 92.3172,319.438 87.8172,318.772 83.5,317.5C 81.1324,319.223 78.4658,319.89 75.5,319.5C 75.8764,322.707 74.8764,325.373 72.5,327.5C 70.1236,325.373 69.1236,322.707 69.5,319.5C 66.632,319.915 64.4653,318.915 63,316.5C 62.6667,317.833 62.3333,319.167 62,320.5C 61.6174,319.944 61.1174,319.611 60.5,319.5C 51.2544,294.806 46.921,269.139 47.5,242.5 Z"/></g>
<g><path style="opacity:1" fill="#4ba7db" d="M 243.5,237.5 C 241.027,239.143 239.027,241.31 237.5,244C 238.711,244.787 239.711,245.454 240.5,246C 240.07,247.434 239.236,248.601 238,249.5C 237.51,250.793 237.343,252.127 237.5,253.5C 236.167,253.5 234.833,253.5 233.5,253.5C 233.5,254.5 233.5,255.5 233.5,256.5C 234.93,256.579 236.264,256.246 237.5,255.5C 237.976,258.184 238.976,260.517 240.5,262.5C 242.666,259.776 245.333,258.276 248.5,258C 247.663,259.011 247.33,260.178 247.5,261.5C 246.448,261.351 245.448,261.517 244.5,262C 241.933,264.91 242.6,265.744 246.5,264.5C 251.215,260.813 256.215,257.647 261.5,255C 262.641,254.259 262.641,253.425 261.5,252.5C 263.167,251.833 264.833,251.167 266.5,250.5C 265.527,246.852 263.193,245.186 259.5,245.5C 259.5,244.5 259.5,243.5 259.5,242.5C 262.923,242.918 265.59,244.584 267.5,247.5C 269.045,248.452 270.712,248.785 272.5,248.5C 273.138,246.54 273.138,244.707 272.5,243C 273.777,242.873 274.943,243.373 276,244.5C 277.44,243.852 278.94,243.519 280.5,243.5C 279.167,244.833 277.833,246.167 276.5,247.5C 261.519,256.659 246.852,266.326 232.5,276.5C 232.34,274.801 232.506,273.134 233,271.5C 234.707,272.138 236.54,272.138 238.5,271.5C 238.833,268.833 239.167,266.167 239.5,263.5C 235.014,262.523 231.848,259.857 230,255.5C 228.887,256.711 227.72,256.711 226.5,255.5C 224.83,256.849 223.164,258.015 221.5,259C 222.167,259.333 222.833,259.667 223.5,260C 221.947,261.097 220.614,262.43 219.5,264C 217.414,265.827 215.414,265.827 213.5,264C 217.69,261.588 217.357,260.588 212.5,261C 209.301,263.702 205.968,266.202 202.5,268.5C 211.916,259.413 221.916,251.08 232.5,243.5C 236.007,241.246 239.673,239.246 243.5,237.5 Z"/></g>
<g><path style="opacity:1" fill="#3ea5df" d="M 232.5,276.5 C 230.391,277.391 228.391,278.558 226.5,280C 224.866,280.494 223.199,280.66 221.5,280.5C 220.086,278.402 220.752,277.402 223.5,277.5C 223.824,274.32 222.49,273.153 219.5,274C 217.85,276.813 215.85,279.313 213.5,281.5C 210.08,279.998 209.746,277.998 212.5,275.5C 213.689,274.571 215.022,274.238 216.5,274.5C 216.5,273.5 216.5,272.5 216.5,271.5C 215.07,271.579 213.736,271.246 212.5,270.5C 211.774,273.393 209.941,275.059 207,275.5C 205.354,277.055 205.021,278.721 206,280.5C 204.951,279.483 203.784,279.316 202.5,280C 200.533,282.436 198.866,284.936 197.5,287.5C 199.981,287.677 201.814,286.677 203,284.5C 208.704,288.107 208.371,291.107 202,293.5C 198.891,292.326 195.724,291.326 192.5,290.5C 192.306,288.93 192.306,287.43 192.5,286C 195.48,283.204 197.814,280.038 199.5,276.5C 198.5,276.5 197.5,276.5 196.5,276.5C 198.025,274.784 199.025,272.784 199.5,270.5C 199.833,269.833 200.167,269.167 200.5,268.5C 200.833,268.5 201.167,268.5 201.5,268.5C 201.833,268.5 202.167,268.5 202.5,268.5C 205.968,266.202 209.301,263.702 212.5,261C 217.357,260.588 217.69,261.588 213.5,264C 215.414,265.827 217.414,265.827 219.5,264C 220.614,262.43 221.947,261.097 223.5,260C 222.833,259.667 222.167,259.333 221.5,259C 223.164,258.015 224.83,256.849 226.5,255.5C 227.72,256.711 228.887,256.711 230,255.5C 231.848,259.857 235.014,262.523 239.5,263.5C 239.167,266.167 238.833,268.833 238.5,271.5C 236.54,272.138 234.707,272.138 233,271.5C 232.506,273.134 232.34,274.801 232.5,276.5 Z"/></g>
<g><path style="opacity:1" fill="#f5fcfd" d="M 276.5,247.5 C 276.383,249.484 277.05,251.15 278.5,252.5C 281.559,254.623 284.892,256.123 288.5,257C 291.874,260.01 295.208,263.01 298.5,266C 300.714,266.46 301.381,265.793 300.5,264C 301.167,263.833 301.833,263.667 302.5,263.5C 304.646,264.894 306.979,265.56 309.5,265.5C 309.227,267.451 309.893,268.951 311.5,270C 310.207,270.49 308.873,270.657 307.5,270.5C 307.614,274.211 308.614,277.545 310.5,280.5C 313.712,278.737 316.212,279.404 318,282.5C 317.26,284.051 316.427,285.717 315.5,287.5C 314.833,287.167 314.167,286.833 313.5,286.5C 312.581,283.911 310.914,281.911 308.5,280.5C 308.262,278.596 307.262,277.262 305.5,276.5C 302.167,271.167 297.833,266.833 292.5,263.5C 289.829,261.066 286.996,258.733 284,256.5C 276.396,260.948 269.229,265.948 262.5,271.5C 269.68,277.597 276.68,283.931 283.5,290.5C 286.167,294.167 288.833,297.833 291.5,301.5C 291.5,302.167 291.5,302.833 291.5,303.5C 290.292,302.766 288.959,302.433 287.5,302.5C 287.748,305.44 286.748,307.44 284.5,308.5C 285.735,311.044 286.901,311.044 288,308.5C 289.375,310.937 289.875,313.603 289.5,316.5C 287.322,315.796 285.322,315.463 283.5,315.5C 283.167,315.167 282.833,314.833 282.5,314.5C 283.5,313.833 284.5,313.167 285.5,312.5C 285.043,311.702 284.376,311.369 283.5,311.5C 283.813,308.753 283.48,306.086 282.5,303.5C 279.833,301.5 277.5,299.167 275.5,296.5C 259.177,295.334 242.844,295.167 226.5,296C 223.689,298.288 220.856,299.788 218,300.5C 216.647,299.315 215.48,297.981 214.5,296.5C 216.415,294.929 217.415,292.929 217.5,290.5C 221.898,285.099 226.898,280.433 232.5,276.5C 246.852,266.326 261.519,256.659 276.5,247.5 Z"/></g>
<g><path style="opacity:1" fill="#45a4db" d="M 292.5,263.5 C 292.527,265.199 293.194,266.533 294.5,267.5C 292.027,267.736 290.36,269.069 289.5,271.5C 290.872,273.62 290.205,274.62 287.5,274.5C 287.333,277.957 286.333,278.29 284.5,275.5C 287.674,270.047 286.341,268.881 280.5,272C 279.643,272.689 278.977,273.522 278.5,274.5C 282.54,277.523 281.873,279.189 276.5,279.5C 276.351,280.552 276.517,281.552 277,282.5C 280.828,283.827 282.994,286.493 283.5,290.5C 276.68,283.931 269.68,277.597 262.5,271.5C 269.229,265.948 276.396,260.948 284,256.5C 286.996,258.733 289.829,261.066 292.5,263.5 Z"/></g>
<g><path style="opacity:1" fill="#61abd2" d="M 292.5,263.5 C 297.833,266.833 302.167,271.167 305.5,276.5C 301.727,273.695 298.06,270.695 294.5,267.5C 293.194,266.533 292.527,265.199 292.5,263.5 Z"/></g>
<g><path style="opacity:1" fill="#3ba0db" d="M 294.5,267.5 C 298.06,270.695 301.727,273.695 305.5,276.5C 307.262,277.262 308.262,278.596 308.5,280.5C 309.031,282.544 310.198,284.211 312,285.5C 313.052,290.585 314.886,295.251 317.5,299.5C 315.027,299.736 313.36,301.069 312.5,303.5C 311.808,302.975 311.308,302.308 311,301.5C 309.902,302.967 308.402,303.801 306.5,304C 307.448,304.483 308.448,304.649 309.5,304.5C 310.201,309.489 308.368,313.156 304,315.5C 302.962,312.613 302.462,309.613 302.5,306.5C 301.833,307.833 301.167,309.167 300.5,310.5C 297.693,307.216 295.693,303.549 294.5,299.5C 291.279,298.118 288.779,295.785 287,292.5C 286.184,291.177 285.017,290.511 283.5,290.5C 282.994,286.493 280.828,283.827 277,282.5C 276.517,281.552 276.351,280.552 276.5,279.5C 281.873,279.189 282.54,277.523 278.5,274.5C 278.977,273.522 279.643,272.689 280.5,272C 286.341,268.881 287.674,270.047 284.5,275.5C 286.333,278.29 287.333,277.957 287.5,274.5C 290.205,274.62 290.872,273.62 289.5,271.5C 290.36,269.069 292.027,267.736 294.5,267.5 Z"/></g>
<g><path style="opacity:1" fill="#54a3ca" d="M 199.5,270.5 C 199.025,272.784 198.025,274.784 196.5,276.5C 190.582,282.718 184.915,289.051 179.5,295.5C 185.437,286.565 192.104,278.232 199.5,270.5 Z"/></g>
<g><path style="opacity:1" fill="#3d9ed3" d="M 308.5,280.5 C 310.914,281.911 312.581,283.911 313.5,286.5C 317.023,294.325 320.69,301.991 324.5,309.5C 323.267,312.953 321.267,315.953 318.5,318.5C 317.381,326.377 316.381,326.377 315.5,318.5C 314.167,318.5 312.833,318.5 311.5,318.5C 312.927,323.128 313.594,327.962 313.5,333C 313.554,338.362 312.888,343.529 311.5,348.5C 310.607,344.809 309.607,341.142 308.5,337.5C 306.063,325.695 301.563,314.695 295,304.5C 293.961,303.29 292.794,302.29 291.5,301.5C 288.833,297.833 286.167,294.167 283.5,290.5C 285.017,290.511 286.184,291.177 287,292.5C 288.779,295.785 291.279,298.118 294.5,299.5C 295.693,303.549 297.693,307.216 300.5,310.5C 301.167,309.167 301.833,307.833 302.5,306.5C 302.462,309.613 302.962,312.613 304,315.5C 308.368,313.156 310.201,309.489 309.5,304.5C 308.448,304.649 307.448,304.483 306.5,304C 308.402,303.801 309.902,302.967 311,301.5C 311.308,302.308 311.808,302.975 312.5,303.5C 313.36,301.069 315.027,299.736 317.5,299.5C 314.886,295.251 313.052,290.585 312,285.5C 310.198,284.211 309.031,282.544 308.5,280.5 Z"/></g>
<g><path style="opacity:1" fill="#dff7fb" d="M 217.5,290.5 C 217.415,292.929 216.415,294.929 214.5,296.5C 215.48,297.981 216.647,299.315 218,300.5C 220.856,299.788 223.689,298.288 226.5,296C 242.844,295.167 259.177,295.334 275.5,296.5C 277.5,299.167 279.833,301.5 282.5,303.5C 283.48,306.086 283.813,308.753 283.5,311.5C 262.69,312.172 241.856,312.839 221,313.5C 215.806,312.393 214.306,309.393 216.5,304.5C 215.147,303.315 213.98,301.981 213,300.5C 212.308,301.025 211.808,301.692 211.5,302.5C 213.392,304.881 213.892,307.547 213,310.5C 211.812,309.437 211.312,308.103 211.5,306.5C 209.516,306.383 207.85,307.05 206.5,308.5C 205.914,308.291 205.414,307.957 205,307.5C 203.133,309.808 202.133,312.475 202,315.5C 199.58,319.067 197.08,322.401 194.5,325.5C 199.392,311.954 207.059,300.287 217.5,290.5 Z"/></g>
<g><path style="opacity:1" fill="#379fda" d="M 221.5,280.5 C 221.586,281.496 221.252,282.329 220.5,283C 216.673,285.286 213.007,286.786 209.5,287.5C 209.325,293.206 206.825,297.539 202,300.5C 201.405,301.899 201.572,303.232 202.5,304.5C 201.478,305.354 200.645,306.354 200,307.5C 199,306.167 198,306.167 197,307.5C 197.409,309.225 197.242,310.892 196.5,312.5C 195.833,312.167 195.167,311.833 194.5,311.5C 193.697,314.244 192.697,316.911 191.5,319.5C 192.795,322.989 192.462,326.322 190.5,329.5C 189.778,329.082 189.278,328.416 189,327.5C 188.751,328.624 188.251,329.624 187.5,330.5C 186.922,326.383 185.755,326.717 184,331.5C 183.51,330.207 183.343,328.873 183.5,327.5C 179.755,326.735 176.255,325.402 173,323.5C 172.722,324.416 172.222,325.082 171.5,325.5C 170.42,319.053 171.92,313.387 176,308.5C 177.644,304.625 178.811,300.625 179.5,296.5C 179.5,296.167 179.5,295.833 179.5,295.5C 184.915,289.051 190.582,282.718 196.5,276.5C 197.5,276.5 198.5,276.5 199.5,276.5C 197.814,280.038 195.48,283.204 192.5,286C 192.306,287.43 192.306,288.93 192.5,290.5C 195.724,291.326 198.891,292.326 202,293.5C 208.371,291.107 208.704,288.107 203,284.5C 201.814,286.677 199.981,287.677 197.5,287.5C 198.866,284.936 200.533,282.436 202.5,280C 203.784,279.316 204.951,279.483 206,280.5C 205.021,278.721 205.354,277.055 207,275.5C 209.941,275.059 211.774,273.393 212.5,270.5C 213.736,271.246 215.07,271.579 216.5,271.5C 216.5,272.5 216.5,273.5 216.5,274.5C 215.022,274.238 213.689,274.571 212.5,275.5C 209.746,277.998 210.08,279.998 213.5,281.5C 215.85,279.313 217.85,276.813 219.5,274C 222.49,273.153 223.824,274.32 223.5,277.5C 220.752,277.402 220.086,278.402 221.5,280.5 Z"/></g>
<g><path style="opacity:1" fill="#4e99c5" d="M 279.5,303.5 C 280.993,304.312 281.66,305.645 281.5,307.5C 281.43,308.772 281.097,309.938 280.5,311C 259.833,311.667 239.167,311.667 218.5,311C 217.409,308.936 217.242,306.769 218,304.5C 220.593,302.451 223.093,300.285 225.5,298C 241.833,297.333 258.167,297.333 274.5,298C 276.373,299.704 278.04,301.537 279.5,303.5 Z"/></g>
<g><path style="opacity:1" fill="#379ad6" d="M 279.5,303.5 C 279.978,306.278 278.978,308.278 276.5,309.5C 257.845,310.5 239.179,310.833 220.5,310.5C 220.343,309.127 220.51,307.793 221,306.5C 223.943,304.099 226.777,301.599 229.5,299C 243.5,298.333 257.5,298.333 271.5,299C 274.309,300.323 276.975,301.823 279.5,303.5 Z"/></g>
<g><path style="opacity:1" fill="#43a0d3" d="M 232.5,276.5 C 226.898,280.433 221.898,285.099 217.5,290.5C 207.059,300.287 199.392,311.954 194.5,325.5C 193.262,327.214 192.595,329.214 192.5,331.5C 191.833,332.833 191.167,334.167 190.5,335.5C 190.5,333.5 190.5,331.5 190.5,329.5C 192.462,326.322 192.795,322.989 191.5,319.5C 192.697,316.911 193.697,314.244 194.5,311.5C 195.167,311.833 195.833,312.167 196.5,312.5C 197.242,310.892 197.409,309.225 197,307.5C 198,306.167 199,306.167 200,307.5C 200.645,306.354 201.478,305.354 202.5,304.5C 201.572,303.232 201.405,301.899 202,300.5C 206.825,297.539 209.325,293.206 209.5,287.5C 213.007,286.786 216.673,285.286 220.5,283C 221.252,282.329 221.586,281.496 221.5,280.5C 223.199,280.66 224.866,280.494 226.5,280C 228.391,278.558 230.391,277.391 232.5,276.5 Z"/></g>
<g><path style="opacity:1" fill="#4a9fcb" d="M 313.5,286.5 C 314.167,286.833 314.833,287.167 315.5,287.5C 317.833,291.5 320.167,295.5 322.5,299.5C 325.946,305.503 328.612,311.836 330.5,318.5C 326.359,317.015 324.359,314.015 324.5,309.5C 320.69,301.991 317.023,294.325 313.5,286.5 Z"/></g>
<g><path style="opacity:1" fill="#f1fafd" d="M 173.5,307.5 C 167.677,318.79 164.344,330.79 163.5,343.5C 162.094,343.973 161.427,344.973 161.5,346.5C 160.097,349.909 159.43,353.575 159.5,357.5C 157.257,358.812 154.59,359.478 151.5,359.5C 143.529,358.502 135.529,357.835 127.5,357.5C 114.184,358.61 100.85,359.277 87.5,359.5C 87.6621,361.527 87.4955,363.527 87,365.5C 86.6667,364.167 86.3333,362.833 86,361.5C 85.586,361.957 85.086,362.291 84.5,362.5C 83.7174,360.712 82.3841,359.712 80.5,359.5C 72.2484,346.997 65.5817,333.663 60.5,319.5C 61.1174,319.611 61.6174,319.944 62,320.5C 62.3333,319.167 62.6667,317.833 63,316.5C 64.4653,318.915 66.632,319.915 69.5,319.5C 69.1236,322.707 70.1236,325.373 72.5,327.5C 74.8764,325.373 75.8764,322.707 75.5,319.5C 78.4658,319.89 81.1324,319.223 83.5,317.5C 87.8172,318.772 92.3172,319.438 97,319.5C 101.167,319.333 105.333,319.167 109.5,319C 108.112,318.111 108.278,317.611 110,317.5C 114.972,319.329 120.139,319.995 125.5,319.5C 125.281,318.325 125.614,317.325 126.5,316.5C 127.452,318.045 127.785,319.712 127.5,321.5C 137.84,320.916 148.173,320.249 158.5,319.5C 159.08,315.858 159.58,312.191 160,308.5C 161,307.5 162,306.5 163,305.5C 163.908,307.439 165.408,308.439 167.5,308.5C 167.843,316.289 169.01,316.289 171,308.5C 171.671,307.748 172.504,307.414 173.5,307.5 Z"/></g>
<g><path style="opacity:1" fill="#f1fafd" d="M 322.5,299.5 C 323.496,299.414 324.329,299.748 325,300.5C 326.752,304.914 329.085,308.914 332,312.5C 332.333,314.5 332.667,316.5 333,318.5C 361.149,319.679 387.815,319.679 413,318.5C 414.255,319.211 415.421,320.044 416.5,321C 422.202,321.4 427.702,321.566 433,321.5C 434.512,318.143 437.012,316.143 440.5,315.5C 436.183,328.466 430.516,340.8 423.5,352.5C 421.547,353.626 420.047,355.292 419,357.5C 418.601,357.272 418.435,356.938 418.5,356.5C 417.527,354.7 416.527,352.866 415.5,351C 399.523,351.366 383.523,351.532 367.5,351.5C 367.5,353.5 367.5,355.5 367.5,357.5C 362.156,357.334 356.823,357.501 351.5,358C 349.942,358.21 348.609,358.71 347.5,359.5C 346.883,359.389 346.383,359.056 346,358.5C 344.898,364.93 344.398,371.263 344.5,377.5C 342.671,378.288 341.004,377.788 339.5,376C 339.833,375.667 340.167,375.333 340.5,375C 339.883,372.723 339.216,370.556 338.5,368.5C 338.666,360.16 338.5,351.827 338,343.5C 338.053,340.325 337.22,337.658 335.5,335.5C 334.595,329.535 332.928,323.869 330.5,318.5C 328.612,311.836 325.946,305.503 322.5,299.5 Z"/></g>
<g><path style="opacity:1" fill="#499bc7" d="M 179.5,296.5 C 178.811,300.625 177.644,304.625 176,308.5C 171.92,313.387 170.42,319.053 171.5,325.5C 170.069,326.78 169.402,328.447 169.5,330.5C 168.5,330.5 167.5,330.5 166.5,330.5C 167.004,334.507 167.17,338.507 167,342.5C 166.667,341.5 166.333,340.5 166,339.5C 165.667,339.833 165.333,340.167 165,340.5C 164.333,349.5 164.333,358.5 165,367.5C 165.552,372.156 166.718,376.656 168.5,381C 172.271,385.374 176.938,386.54 182.5,384.5C 183.531,383.3 184.365,381.966 185,380.5C 186.275,367.903 186.942,355.236 187,342.5C 187.436,339.602 188.603,337.269 190.5,335.5C 189.118,350.826 187.952,366.159 187,381.5C 182.636,388.523 176.803,390.189 169.5,386.5C 166.318,382.821 164.485,378.488 164,373.5C 163.5,363.506 163.334,353.506 163.5,343.5C 164.344,330.79 167.677,318.79 173.5,307.5C 175.133,303.571 177.133,299.904 179.5,296.5 Z"/></g>
<g><path style="opacity:1" fill="#e9fafd" d="M 291.5,301.5 C 292.794,302.29 293.961,303.29 295,304.5C 301.563,314.695 306.063,325.695 308.5,337.5C 310.152,351.105 310.819,364.771 310.5,378.5C 309.833,371.167 309.167,363.833 308.5,356.5C 308.5,354.833 308.5,353.167 308.5,351.5C 307.5,351.5 306.5,351.5 305.5,351.5C 305.71,346.802 305.876,342.136 306,337.5C 305.612,338.428 304.945,339.095 304,339.5C 301.811,338.351 299.811,337.685 298,337.5C 294.002,341.793 289.002,343.793 283,343.5C 279.091,341.452 275.257,339.119 271.5,336.5C 269.902,338.973 268.402,338.973 267,336.5C 266.667,336.833 266.333,337.167 266,337.5C 263.156,334.77 262.822,331.77 265,328.5C 265.497,330.81 265.663,333.143 265.5,335.5C 267.822,333.588 270.488,332.255 273.5,331.5C 272.599,327.759 273.932,325.759 277.5,325.5C 277.5,324.5 277.5,323.5 277.5,322.5C 281.547,322.695 285.547,322.362 289.5,321.5C 291.382,322.531 293.382,323.365 295.5,324C 296.729,327.743 297.729,331.576 298.5,335.5C 299.321,332.553 299.821,329.553 300,326.5C 300.667,327.833 301.333,327.833 302,326.5C 302.667,324.5 302.667,322.5 302,320.5C 299.898,317.295 298.065,313.962 296.5,310.5C 295.086,309.376 293.586,308.376 292,307.5C 291.51,306.207 291.343,304.873 291.5,303.5C 291.5,302.833 291.5,302.167 291.5,301.5 Z"/></g>
<g><path style="opacity:1" fill="#4e9ac3" d="M 330.5,318.5 C 332.928,323.869 334.595,329.535 335.5,335.5C 336.797,346.295 336.797,356.961 335.5,367.5C 335.763,356.795 335.43,346.128 334.5,335.5C 333.022,335.762 331.689,335.429 330.5,334.5C 331.84,333.312 332.507,331.812 332.5,330C 331.431,326.226 330.764,322.393 330.5,318.5 Z"/></g>
<g><path style="opacity:1" fill="#579bc5" d="M 275.5,329.5 C 275.733,327.938 276.4,326.605 277.5,325.5C 283.726,322.396 289.559,323.062 295,327.5C 295.904,337.916 291.07,342.083 280.5,340C 275.624,337.76 273.958,334.26 275.5,329.5 Z"/></g>
<g><path style="opacity:1" fill="#3496d5" d="M 275.5,329.5 C 281.348,323.26 287.514,322.926 294,328.5C 294.495,330.473 294.662,332.473 294.5,334.5C 293.5,334.5 292.5,334.5 291.5,334.5C 291.64,336.124 290.973,337.29 289.5,338C 286.183,338.498 282.85,338.665 279.5,338.5C 279.5,336.833 279.5,335.167 279.5,333.5C 278.167,333.5 276.833,333.5 275.5,333.5C 275.5,332.167 275.5,330.833 275.5,329.5 Z"/></g>
<g><path style="opacity:1" fill="#3197ce" d="M 324.5,309.5 C 324.359,314.015 326.359,317.015 330.5,318.5C 330.764,322.393 331.431,326.226 332.5,330C 332.507,331.812 331.84,333.312 330.5,334.5C 331.689,335.429 333.022,335.762 334.5,335.5C 335.43,346.128 335.763,356.795 335.5,367.5C 335.81,370.713 335.477,373.713 334.5,376.5C 334.5,368.167 334.5,359.833 334.5,351.5C 329.745,351.853 324.745,351.853 319.5,351.5C 319.572,355.689 318.739,359.689 317,363.5C 316.667,360.833 316.333,358.167 316,355.5C 315.667,360.167 315.333,364.833 315,369.5C 314.768,370.737 314.268,371.737 313.5,372.5C 313.093,365.33 312.426,358.33 311.5,351.5C 311.5,350.5 311.5,349.5 311.5,348.5C 312.888,343.529 313.554,338.362 313.5,333C 313.594,327.962 312.927,323.128 311.5,318.5C 312.833,318.5 314.167,318.5 315.5,318.5C 316.381,326.377 317.381,326.377 318.5,318.5C 321.267,315.953 323.267,312.953 324.5,309.5 Z"/></g>
<g><path style="opacity:1" fill="#f2f9fc" d="M 283.5,311.5 C 284.376,311.369 285.043,311.702 285.5,312.5C 284.5,313.167 283.5,313.833 282.5,314.5C 282.833,314.833 283.167,315.167 283.5,315.5C 285.322,315.463 287.322,315.796 289.5,316.5C 289.875,313.603 289.375,310.937 288,308.5C 286.901,311.044 285.735,311.044 284.5,308.5C 286.748,307.44 287.748,305.44 287.5,302.5C 288.959,302.433 290.292,302.766 291.5,303.5C 291.343,304.873 291.51,306.207 292,307.5C 293.586,308.376 295.086,309.376 296.5,310.5C 298.065,313.962 299.898,317.295 302,320.5C 302.667,322.5 302.667,324.5 302,326.5C 301.333,327.833 300.667,327.833 300,326.5C 299.821,329.553 299.321,332.553 298.5,335.5C 297.729,331.576 296.729,327.743 295.5,324C 293.382,323.365 291.382,322.531 289.5,321.5C 285.547,322.362 281.547,322.695 277.5,322.5C 277.5,323.5 277.5,324.5 277.5,325.5C 273.932,325.759 272.599,327.759 273.5,331.5C 270.488,332.255 267.822,333.588 265.5,335.5C 265.663,333.143 265.497,330.81 265,328.5C 262.822,331.77 263.156,334.77 266,337.5C 266.333,337.167 266.667,336.833 267,336.5C 268.402,338.973 269.902,338.973 271.5,336.5C 275.257,339.119 279.091,341.452 283,343.5C 289.002,343.793 294.002,341.793 298,337.5C 299.811,337.685 301.811,338.351 304,339.5C 304.945,339.095 305.612,338.428 306,337.5C 305.876,342.136 305.71,346.802 305.5,351.5C 306.5,351.5 307.5,351.5 308.5,351.5C 308.5,353.167 308.5,354.833 308.5,356.5C 308.666,361.179 308.499,365.845 308,370.5C 307.333,371.833 306.667,371.833 306,370.5C 305.882,373.371 305.216,376.038 304,378.5C 303.503,376.19 303.337,373.857 303.5,371.5C 300.169,371.982 297.503,370.982 295.5,368.5C 296.866,366.649 298.533,366.316 300.5,367.5C 300.833,365.833 301.167,364.167 301.5,362.5C 300.798,359.096 300.798,355.763 301.5,352.5C 300.5,352.167 299.5,351.833 298.5,351.5C 266.518,350.522 234.518,350.188 202.5,350.5C 200.897,353.373 199.564,356.373 198.5,359.5C 197.221,360.968 195.554,361.635 193.5,361.5C 193.849,364.045 193.016,366.045 191,367.5C 190.169,355.436 190.669,343.436 192.5,331.5C 192.595,329.214 193.262,327.214 194.5,325.5C 197.08,322.401 199.58,319.067 202,315.5C 202.133,312.475 203.133,309.808 205,307.5C 205.414,307.957 205.914,308.291 206.5,308.5C 207.85,307.05 209.516,306.383 211.5,306.5C 211.312,308.103 211.812,309.437 213,310.5C 213.892,307.547 213.392,304.881 211.5,302.5C 211.808,301.692 212.308,301.025 213,300.5C 213.98,301.981 215.147,303.315 216.5,304.5C 214.306,309.393 215.806,312.393 221,313.5C 241.856,312.839 262.69,312.172 283.5,311.5 Z"/></g>
<g><path style="opacity:1" fill="#d5f4f9" d="M 206.5,322.5 C 224.534,322.207 242.534,322.54 260.5,323.5C 261.688,329.181 261.688,334.848 260.5,340.5C 242.279,341.106 224.113,341.772 206,342.5C 204.615,341.449 203.615,340.116 203,338.5C 202.417,334.168 201.917,329.835 201.5,325.5C 203.933,325.727 205.599,324.727 206.5,322.5 Z"/></g>
<g><path style="opacity:1" fill="#4098cb" d="M 207.5,338.5 C 201.832,332.974 202.499,328.14 209.5,324C 224.5,323.333 239.5,323.333 254.5,324C 256.286,324.785 257.786,325.951 259,327.5C 260.262,331.909 259.428,335.743 256.5,339C 239.995,339.828 223.661,339.662 207.5,338.5 Z"/></g>
<g><path style="opacity:1" fill="#3297d4" d="M 207.5,338.5 C 205.983,335.413 205.316,332.079 205.5,328.5C 207.564,328.313 209.564,327.813 211.5,327C 221.64,327.052 230.473,326.885 238,326.5C 240.147,327.113 242.314,327.779 244.5,328.5C 243.617,330.48 243.783,332.48 245,334.5C 245.667,331.833 246.333,331.833 247,334.5C 247.667,331.833 248.333,331.833 249,334.5C 251.786,333.246 254.286,331.58 256.5,329.5C 258.283,331.023 258.949,333.023 258.5,335.5C 257.5,335.5 256.5,335.5 255.5,335.5C 255.5,336.5 255.5,337.5 255.5,338.5C 239.5,338.5 223.5,338.5 207.5,338.5 Z"/></g>
<g><path style="opacity:1" fill="#d4f5fe" d="M 295.5,368.5 C 264.482,369.159 233.815,368.492 203.5,366.5C 233.428,367.658 263.428,367.825 293.5,367C 295.32,366.8 296.653,365.966 297.5,364.5C 299.026,363.508 299.693,362.008 299.5,360C 299.876,357.345 298.876,355.512 296.5,354.5C 296.389,353.883 296.056,353.383 295.5,353C 265.167,352.333 234.833,352.333 204.5,353C 200.81,355.169 199.143,358.336 199.5,362.5C 198.596,361.791 198.263,360.791 198.5,359.5C 199.564,356.373 200.897,353.373 202.5,350.5C 234.518,350.188 266.518,350.522 298.5,351.5C 299.5,351.833 300.5,352.167 301.5,352.5C 300.798,355.763 300.798,359.096 301.5,362.5C 301.167,364.167 300.833,365.833 300.5,367.5C 298.533,366.316 296.866,366.649 295.5,368.5 Z"/></g>
<g><path style="opacity:1" fill="#eef7fe" d="M 418.5,356.5 C 416.121,355.433 415.121,356.433 415.5,359.5C 411.944,359.275 411.61,360.108 414.5,362C 412.945,366.519 411.445,366.352 410,361.5C 408.765,366.196 406.932,370.696 404.5,375C 404.833,375.333 405.167,375.667 405.5,376C 403.546,375.547 401.713,375.38 400,375.5C 399.5,376 399,376.5 398.5,377C 396,377.167 393.5,377.333 391,377.5C 384.526,376.585 378.026,375.919 371.5,375.5C 364.818,375.89 358.151,376.057 351.5,376C 349.972,373.001 348.805,369.835 348,366.5C 347.503,364.19 347.337,361.857 347.5,359.5C 348.609,358.71 349.942,358.21 351.5,358C 356.823,357.501 362.156,357.334 367.5,357.5C 367.5,355.5 367.5,353.5 367.5,351.5C 383.523,351.532 399.523,351.366 415.5,351C 416.527,352.866 417.527,354.7 418.5,356.5 Z"/></g>
<g><path style="opacity:1" fill="#2c94ce" d="M 190.5,329.5 C 190.5,331.5 190.5,333.5 190.5,335.5C 188.603,337.269 187.436,339.602 187,342.5C 186.942,355.236 186.275,367.903 185,380.5C 184.365,381.966 183.531,383.3 182.5,384.5C 176.938,386.54 172.271,385.374 168.5,381C 166.718,376.656 165.552,372.156 165,367.5C 164.333,358.5 164.333,349.5 165,340.5C 165.333,340.167 165.667,339.833 166,339.5C 166.333,340.5 166.667,341.5 167,342.5C 167.17,338.507 167.004,334.507 166.5,330.5C 167.5,330.5 168.5,330.5 169.5,330.5C 169.402,328.447 170.069,326.78 171.5,325.5C 172.222,325.082 172.722,324.416 173,323.5C 176.255,325.402 179.755,326.735 183.5,327.5C 183.343,328.873 183.51,330.207 184,331.5C 185.755,326.717 186.922,326.383 187.5,330.5C 188.251,329.624 188.751,328.624 189,327.5C 189.278,328.416 189.778,329.082 190.5,329.5 Z"/></g>
<g><path style="opacity:1" fill="#e8f5fc" d="M 192.5,331.5 C 190.669,343.436 190.169,355.436 191,367.5C 193.016,366.045 193.849,364.045 193.5,361.5C 195.554,361.635 197.221,360.968 198.5,359.5C 198.263,360.791 198.596,361.791 199.5,362.5C 201.167,363.5 202.5,364.833 203.5,366.5C 233.815,368.492 264.482,369.159 295.5,368.5C 297.503,370.982 300.169,371.982 303.5,371.5C 303.337,373.857 303.503,376.19 304,378.5C 305.216,376.038 305.882,373.371 306,370.5C 306.667,371.833 307.333,371.833 308,370.5C 308.499,365.845 308.666,361.179 308.5,356.5C 309.167,363.833 309.833,371.167 310.5,378.5C 310.917,381.079 310.25,383.246 308.5,385C 311.874,385.521 314.874,386.854 317.5,389C 320.833,389.667 324.167,389.667 327.5,389C 329.324,388.34 330.657,387.173 331.5,385.5C 332.93,385.579 334.264,385.246 335.5,384.5C 335.992,378.992 336.992,373.659 338.5,368.5C 339.216,370.556 339.883,372.723 340.5,375C 340.167,375.333 339.833,375.667 339.5,376C 341.004,377.788 342.671,378.288 344.5,377.5C 344.398,371.263 344.898,364.93 346,358.5C 346.383,359.056 346.883,359.389 347.5,359.5C 347.337,361.857 347.503,364.19 348,366.5C 348.805,369.835 349.972,373.001 351.5,376C 358.151,376.057 364.818,375.89 371.5,375.5C 378.026,375.919 384.526,376.585 391,377.5C 393.5,377.333 396,377.167 398.5,377C 399,376.5 399.5,376 400,375.5C 401.713,375.38 403.546,375.547 405.5,376C 405.167,375.667 404.833,375.333 404.5,375C 406.932,370.696 408.765,366.196 410,361.5C 411.445,366.352 412.945,366.519 414.5,362C 411.61,360.108 411.944,359.275 415.5,359.5C 415.121,356.433 416.121,355.433 418.5,356.5C 418.435,356.938 418.601,357.272 419,357.5C 420.047,355.292 421.547,353.626 423.5,352.5C 408.595,378.072 388.595,398.738 363.5,414.5C 362.448,414.649 361.448,414.483 360.5,414C 361.833,412.667 363.167,411.333 364.5,410C 363.167,409.667 361.833,409.333 360.5,409C 361.696,408.346 361.696,407.846 360.5,407.5C 359.355,408.776 359.355,410.109 360.5,411.5C 360.062,412.506 359.396,412.506 358.5,411.5C 357.138,413.012 356.804,414.512 357.5,416C 353.319,417.005 349.319,418.505 345.5,420.5C 345.167,420.333 344.833,420.167 344.5,420C 345.5,419.167 346.5,418.333 347.5,417.5C 344.155,414.327 340.155,412.994 335.5,413.5C 335.5,412.167 335.5,410.833 335.5,409.5C 338.167,409.5 340.833,409.5 343.5,409.5C 343.5,408.167 343.5,406.833 343.5,405.5C 327.448,405.337 311.448,406.17 295.5,408C 300.823,408.499 306.156,408.666 311.5,408.5C 311.5,410.167 311.5,411.833 311.5,413.5C 300.607,412.682 289.94,412.682 279.5,413.5C 279.5,412.167 279.5,410.833 279.5,409.5C 283.703,409.924 287.703,409.424 291.5,408C 291.043,407.586 290.709,407.086 290.5,406.5C 280.573,404.965 270.74,405.298 261,407.5C 259.553,407.055 258.22,406.388 257,405.5C 235.29,407.299 213.456,408.132 191.5,408C 215.498,408.5 239.498,408.667 263.5,408.5C 263.5,410.167 263.5,411.833 263.5,413.5C 239.498,413.667 215.498,413.5 191.5,413C 189.57,411.08 187.904,408.913 186.5,406.5C 169.5,405.167 152.5,405.167 135.5,406.5C 134.271,407.281 132.938,407.781 131.5,408C 132.451,408.718 132.617,409.551 132,410.5C 131.184,409.177 130.017,408.511 128.5,408.5C 112.231,397.899 98.5644,384.565 87.5,368.5C 88.9305,368.579 90.2638,368.246 91.5,367.5C 91.8333,367.833 92.1667,368.167 92.5,368.5C 91.1886,369.258 90.6886,370.258 91,371.5C 94.0541,372.727 96.8874,374.394 99.5,376.5C 101.086,378.173 101.753,380.173 101.5,382.5C 103.226,382.815 104.893,382.981 106.5,383C 107.479,380.863 108.812,379.029 110.5,377.5C 111.935,379.401 113.602,379.734 115.5,378.5C 117.833,376.167 120.167,373.833 122.5,371.5C 123.429,370.311 123.762,368.978 123.5,367.5C 124.822,367.33 125.989,367.663 127,368.5C 127.497,370.81 127.663,373.143 127.5,375.5C 130.728,375.299 133.895,375.633 137,376.5C 144.341,374.394 151.841,373.06 159.5,372.5C 160.181,367.464 160.181,362.464 159.5,357.5C 159.43,353.575 160.097,349.909 161.5,346.5C 161.656,349.066 161.322,351.566 160.5,354C 161.687,363.121 162.521,372.288 163,381.5C 163.333,380.833 163.667,380.167 164,379.5C 164.432,383.072 166.265,385.405 169.5,386.5C 176.803,390.189 182.636,388.523 187,381.5C 187.952,366.159 189.118,350.826 190.5,335.5C 191.167,334.167 191.833,332.833 192.5,331.5 Z"/></g>
<g><path style="opacity:1" fill="#2d91ca" d="M 222.5,353.5 C 247.188,353.215 271.855,353.549 296.5,354.5C 298.876,355.512 299.876,357.345 299.5,360C 299.693,362.008 299.026,363.508 297.5,364.5C 296.167,364.5 294.833,364.5 293.5,364.5C 292.026,361.69 290.86,358.69 290,355.5C 290.725,362.228 287.725,364.895 281,363.5C 278.5,363.333 276,363.167 273.5,363C 275.5,362.667 277.5,362.333 279.5,362C 278.167,361.667 276.833,361.333 275.5,361C 278.5,360.667 281.5,360.333 284.5,360C 285.308,359.692 285.975,359.192 286.5,358.5C 283.893,357.682 281.226,357.182 278.5,357C 278.957,356.586 279.291,356.086 279.5,355.5C 260.338,354.833 241.338,354.167 222.5,353.5 Z"/></g>
<g><path style="opacity:1" fill="#2b92cc" d="M 334.5,376.5 C 332.552,378.32 331.552,380.654 331.5,383.5C 328.997,384.726 326.331,385.726 323.5,386.5C 321.366,386.485 319.366,385.985 317.5,385C 315.607,381.06 314.274,376.894 313.5,372.5C 314.268,371.737 314.768,370.737 315,369.5C 315.333,364.833 315.667,360.167 316,355.5C 316.333,358.167 316.667,360.833 317,363.5C 318.739,359.689 319.572,355.689 319.5,351.5C 324.745,351.853 329.745,351.853 334.5,351.5C 334.5,359.833 334.5,368.167 334.5,376.5 Z"/></g>
<g><path style="opacity:1" fill="#eef7fd" d="M 159.5,357.5 C 160.181,362.464 160.181,367.464 159.5,372.5C 151.841,373.06 144.341,374.394 137,376.5C 133.895,375.633 130.728,375.299 127.5,375.5C 127.663,373.143 127.497,370.81 127,368.5C 125.989,367.663 124.822,367.33 123.5,367.5C 123.762,368.978 123.429,370.311 122.5,371.5C 120.167,373.833 117.833,376.167 115.5,378.5C 113.602,379.734 111.935,379.401 110.5,377.5C 108.812,379.029 107.479,380.863 106.5,383C 104.893,382.981 103.226,382.815 101.5,382.5C 101.753,380.173 101.086,378.173 99.5,376.5C 96.8874,374.394 94.0541,372.727 91,371.5C 90.6886,370.258 91.1886,369.258 92.5,368.5C 92.1667,368.167 91.8333,367.833 91.5,367.5C 90.2638,368.246 88.9305,368.579 87.5,368.5C 84.8154,365.81 82.4821,362.81 80.5,359.5C 82.3841,359.712 83.7174,360.712 84.5,362.5C 85.086,362.291 85.586,361.957 86,361.5C 86.3333,362.833 86.6667,364.167 87,365.5C 87.4955,363.527 87.6621,361.527 87.5,359.5C 100.85,359.277 114.184,358.61 127.5,357.5C 135.529,357.835 143.529,358.502 151.5,359.5C 154.59,359.478 157.257,358.812 159.5,357.5 Z"/></g>
<g><path style="opacity:1" fill="#2892d0" d="M 222.5,353.5 C 241.338,354.167 260.338,354.833 279.5,355.5C 279.291,356.086 278.957,356.586 278.5,357C 281.226,357.182 283.893,357.682 286.5,358.5C 285.975,359.192 285.308,359.692 284.5,360C 281.5,360.333 278.5,360.667 275.5,361C 276.833,361.333 278.167,361.667 279.5,362C 277.5,362.333 275.5,362.667 273.5,363C 276,363.167 278.5,363.333 281,363.5C 287.725,364.895 290.725,362.228 290,355.5C 290.86,358.69 292.026,361.69 293.5,364.5C 263.646,365.806 233.646,365.806 203.5,364.5C 203.5,361.5 203.5,358.5 203.5,355.5C 209.694,353.875 216.028,353.208 222.5,353.5 Z"/></g>
<g><path style="opacity:1" fill="#4396c4" d="M 296.5,354.5 C 271.855,353.549 247.188,353.215 222.5,353.5C 216.028,353.208 209.694,353.875 203.5,355.5C 203.5,358.5 203.5,361.5 203.5,364.5C 233.646,365.806 263.646,365.806 293.5,364.5C 294.833,364.5 296.167,364.5 297.5,364.5C 296.653,365.966 295.32,366.8 293.5,367C 263.428,367.825 233.428,367.658 203.5,366.5C 202.5,364.833 201.167,363.5 199.5,362.5C 199.143,358.336 200.81,355.169 204.5,353C 234.833,352.333 265.167,352.333 295.5,353C 296.056,353.383 296.389,353.883 296.5,354.5 Z"/></g>
<g><path style="opacity:1" fill="#ebf5f8" d="M 259.5,380.5 C 258.711,380.217 258.044,379.717 257.5,379C 240.167,378.333 222.833,378.333 205.5,379C 203.187,379.662 200.854,380.162 198.5,380.5C 198.5,381.833 198.5,383.167 198.5,384.5C 196.958,383.699 195.292,383.366 193.5,383.5C 193.66,385.199 193.494,386.866 193,388.5C 191.374,385.934 189.874,386.101 188.5,389C 191.384,390.037 192.05,391.871 190.5,394.5C 187.888,393.221 185.555,391.555 183.5,389.5C 185.18,386.998 186.846,384.498 188.5,382C 194.199,383.139 196.866,380.305 196.5,373.5C 216.61,374.55 236.443,374.55 256,373.5C 264.303,374.433 266.637,378.766 263,386.5C 262.124,384.242 260.957,382.242 259.5,380.5 Z"/></g>
<g><path style="opacity:1" fill="#cceff7" d="M 163.5,343.5 C 163.334,353.506 163.5,363.506 164,373.5C 164.485,378.488 166.318,382.821 169.5,386.5C 166.265,385.405 164.432,383.072 164,379.5C 163.667,380.167 163.333,380.833 163,381.5C 162.521,372.288 161.687,363.121 160.5,354C 161.322,351.566 161.656,349.066 161.5,346.5C 161.427,344.973 162.094,343.973 163.5,343.5 Z"/></g>
<g><path style="opacity:1" fill="#4a96bf" d="M 311.5,351.5 C 312.426,358.33 313.093,365.33 313.5,372.5C 314.274,376.894 315.607,381.06 317.5,385C 319.366,385.985 321.366,386.485 323.5,386.5C 326.331,385.726 328.997,384.726 331.5,383.5C 331.552,380.654 332.552,378.32 334.5,376.5C 334.871,380.003 333.871,383.003 331.5,385.5C 324.406,390.29 318.239,389.29 313,382.5C 311.549,372.271 311.049,361.938 311.5,351.5 Z"/></g>
<g><path style="opacity:1" fill="#d0f2fb" d="M 335.5,335.5 C 337.22,337.658 338.053,340.325 338,343.5C 338.5,351.827 338.666,360.16 338.5,368.5C 336.992,373.659 335.992,378.992 335.5,384.5C 334.264,385.246 332.93,385.579 331.5,385.5C 333.871,383.003 334.871,380.003 334.5,376.5C 335.477,373.713 335.81,370.713 335.5,367.5C 336.797,356.961 336.797,346.295 335.5,335.5 Z"/></g>
<g><path style="opacity:1" fill="#d6f9fe" d="M 308.5,337.5 C 309.607,341.142 310.607,344.809 311.5,348.5C 311.5,349.5 311.5,350.5 311.5,351.5C 311.049,361.938 311.549,372.271 313,382.5C 318.239,389.29 324.406,390.29 331.5,385.5C 330.657,387.173 329.324,388.34 327.5,389C 324.167,389.667 320.833,389.667 317.5,389C 314.874,386.854 311.874,385.521 308.5,385C 310.25,383.246 310.917,381.079 310.5,378.5C 310.819,364.771 310.152,351.105 308.5,337.5 Z"/></g>
<g><path style="opacity:1" fill="#3e96c9" d="M 259.5,383.5 C 260.833,386.167 260.833,388.833 259.5,391.5C 257.99,392.836 256.323,394.003 254.5,395C 238.167,395.667 221.833,395.667 205.5,395C 200.776,392.565 199.276,388.731 201,383.5C 202.579,381.959 204.413,380.792 206.5,380C 222.833,379.333 239.167,379.333 255.5,380C 257.027,381.032 258.36,382.199 259.5,383.5 Z"/></g>
<g><path style="opacity:1" fill="#258fcb" d="M 227.5,382.5 C 237.33,382.185 247.33,382.519 257.5,383.5C 257.777,386.448 257.444,389.281 256.5,392C 240.17,392.5 223.837,392.667 207.5,392.5C 207.318,390.409 207.652,388.409 208.5,386.5C 214.472,385.67 220.472,385.17 226.5,385C 227.252,384.329 227.586,383.496 227.5,382.5 Z"/></g>
<g><path style="opacity:1" fill="#d8f8fd" d="M 259.5,380.5 C 259.5,381.5 259.5,382.5 259.5,383.5C 258.36,382.199 257.027,381.032 255.5,380C 239.167,379.333 222.833,379.333 206.5,380C 204.413,380.792 202.579,381.959 201,383.5C 199.276,388.731 200.776,392.565 205.5,395C 221.833,395.667 238.167,395.667 254.5,395C 256.323,394.003 257.99,392.836 259.5,391.5C 259.376,393.61 258.209,395.61 256,397.5C 239.215,396.185 222.382,396.185 205.5,397.5C 199.754,395.009 197.421,390.675 198.5,384.5C 198.5,383.167 198.5,381.833 198.5,380.5C 200.854,380.162 203.187,379.662 205.5,379C 222.833,378.333 240.167,378.333 257.5,379C 258.044,379.717 258.711,380.217 259.5,380.5 Z"/></g>
<g><path style="opacity:1" fill="#e6f3fc" d="M 363.5,414.5 C 317.93,444.85 267.93,455.35 213.5,446C 182.106,439.96 153.773,427.46 128.5,408.5C 130.017,408.511 131.184,409.177 132,410.5C 132.617,409.551 132.451,408.718 131.5,408C 132.938,407.781 134.271,407.281 135.5,406.5C 152.5,405.167 169.5,405.167 186.5,406.5C 187.904,408.913 189.57,411.08 191.5,413C 215.498,413.5 239.498,413.667 263.5,413.5C 263.5,411.833 263.5,410.167 263.5,408.5C 239.498,408.667 215.498,408.5 191.5,408C 213.456,408.132 235.29,407.299 257,405.5C 258.22,406.388 259.553,407.055 261,407.5C 270.74,405.298 280.573,404.965 290.5,406.5C 290.709,407.086 291.043,407.586 291.5,408C 287.703,409.424 283.703,409.924 279.5,409.5C 279.5,410.833 279.5,412.167 279.5,413.5C 289.94,412.682 300.607,412.682 311.5,413.5C 311.5,411.833 311.5,410.167 311.5,408.5C 306.156,408.666 300.823,408.499 295.5,408C 311.448,406.17 327.448,405.337 343.5,405.5C 343.5,406.833 343.5,408.167 343.5,409.5C 340.833,409.5 338.167,409.5 335.5,409.5C 335.5,410.833 335.5,412.167 335.5,413.5C 340.155,412.994 344.155,414.327 347.5,417.5C 346.5,418.333 345.5,419.167 344.5,420C 344.833,420.167 345.167,420.333 345.5,420.5C 349.319,418.505 353.319,417.005 357.5,416C 356.804,414.512 357.138,413.012 358.5,411.5C 359.396,412.506 360.062,412.506 360.5,411.5C 359.355,410.109 359.355,408.776 360.5,407.5C 361.696,407.846 361.696,408.346 360.5,409C 361.833,409.333 363.167,409.667 364.5,410C 363.167,411.333 361.833,412.667 360.5,414C 361.448,414.483 362.448,414.649 363.5,414.5 Z"/></g>
</svg>
